<?xml version="1.0"?>
<svg xmlns="http://www.w3.org/2000/svg" width="123.34496" height="76.65197" viewBox="-1.2657977 -1.2657977 8.4832328 5.2742276">
<g transform="matrix(0.12500168,0,0,0.12500168,-1.1074987,3.5073787)">
 <path style="fill:#004EA2" d="m 7.7027201,-37.999058 c -3.51563,0.52735 -7.67578998,2.47071 -7.67578998,2.47071 0,0 22.62695988,17.197259 26.21582988,19.760739 7.01172,5.00976 10.4248,5.49316 16.90917,1.19629 0.0341,-0.0147 2.1338,-1.3916 2.16309,-1.41114 -1.958,0.10254 -3.97949,-1.00097 -6.24511,-2.70019 -7.26563,-5.43945 -21.75782,-16.230469 -22.72949,-16.948239 -3.36915,-2.51953 -5.4834,-2.83692 -8.6376999,-2.36817" />
 <path style="fill:#7DBE25" d="m 39.52401,-20.997099 c 3.62305,2.71484 6.23047,4.64355 10.44922,1.85058 0.44921,-0.30273 14.86328,-9.809569 15.51758,-10.244139 -3.64747,-2.73437 -6.25489,-4.6875 -10.48829,-1.87988 -0.5957,0.39062 -11.44043,7.543939 -12.10449,7.983399 -1.95801,1.26953 -3.73047,1.39648 -5.03417,1.04492 0.01,0.0147 1.6455,1.23535 1.66015,1.24512 m 16.69922,-13.969729 c -3.61817,-2.71973 -6.22559,-4.64355 -10.44922,-1.85059 -0.4541,0.29786 -13.76953,9.0918 -14.42383,9.53125 3.64746,2.729499 6.25488,4.682619 10.48828,1.874999 0.59571,-0.39062 10.35156,-6.831049 11.01562,-7.265619 1.95313,-1.27442 2.89063,-1.65039 4.05763,-1.80176 -0.01,-0.01 -0.67384,-0.47851 -0.68848,-0.48828" />
 <path style="fill:#004EA2" d="m 40.79842,3.6269212 -0.21973,-8.94531 h -5.0293 L 33.53768,0.75583121 31.53084,-5.3183888 h -5.0293 l -0.22461,8.94531 h 3.17871 l 0.044,-6.75781 2.40234,6.75781 h 3.27638 l 2.40722,-6.75781 0.0341,6.75781 z m 0,0 m 6.71387,-4.86328 1.15234,-2.49024 1.15235,2.49024 z m 3.4082,-4.08203 h -4.5166 l -5.11231,8.95019 h 3.97461 l 1.31837,-2.83202999 h 4.16992 l 1.3037,2.83202999 h 3.97461 z m 0,0 m -30.9961,6.40625 v 0 c -0.54687,0.38574 -1.45507,0.65918 -2.26562,0.65918 -0.80566,0 -1.70898,-0.27344 -2.26074,-0.65918 -0.64941,-0.45898999 -1.06445,-1.01073999 -1.10351,-1.87988999 0.039,-0.87890001 0.4541,-1.42578001 1.10351,-1.88476001 0.55176,-0.38574 1.45508,-0.6543 2.26074,-0.6543 0.81055,0 1.71875,0.26856 2.26562,0.6543 0.65919,0.45898 1.06447,1.00586 1.10353,1.88476001 -0.039,0.86915 -0.44434,1.4209 -1.10353,1.87988999 m 4.83888,-1.87988999 c 0,-0.0391 0.005,-0.0732 0.005,-0.10253 h -0.005 c -0.0586,-1.36719001 -0.625,-2.30957001 -1.58204,-3.15430001 -0.93261,-0.8252 -2.6709,-1.53809 -5.52246,-1.53809 -2.84179,0 -4.58496,0.71289 -5.51758,1.53809 -0.96191,0.84473 -1.52832,1.78711 -1.57715,3.15430001 h -0.01 c 0,0.0293 0,0.0635 0.005,0.10253 -0.005,0.0342 -0.005,0.0635 -0.005,0.0977 h 0.01 c 0.0489,1.36719 0.61524,2.31445999 1.57715,3.15429999 0.93262,0.82031 2.67579,1.53809 5.51758,1.53809 2.85156,0 4.58985,-0.71778 5.52246,-1.53809 0.95704,-0.83984 1.52344,-1.78710999 1.58204,-3.15429999 h 0.005 c 0,-0.0342 -0.005,-0.0635 -0.005,-0.0977 M 66.37948,-3.1797188 c -1.95312,-0.51758 -4.4629,-0.42481 -5.70312,0.41992 -0.68849,0.46387 -1.10353,1.03027 -1.10353,1.95801001 0,0.83496 0.4834,1.48926 1.24024,1.96776999 1.15722,0.73242 3.59864,0.81543 5.80079,0.29297 l -0.21485,2.09961 c -4.30177,1.05957 -7.18262,0.0146 -8.45703,-0.75195 -1.24512,-0.76172 -2.10937,-2.02148999 -2.10937,-3.63769999 0,-1.44043001 0.58105,-2.40234001 1.58691,-3.26660001 1.25487,-1.06934 4.18945,-2.03613 8.62304,-1.13769 z m 0,0 m -57.1142599,0 c -1.95313,-0.51758 -4.46289,-0.42481 -5.70313,0.41992 -0.6836,0.46387 -1.10351,1.03027 -1.10351,1.95801001 0,0.83496 0.4834,1.48926 1.24023,1.96776999 1.15723,0.73242 3.60352,0.81543 5.80567,0.29297 l -0.22461,2.09961 c -4.29688,1.05957 -7.17774,0.0146 -8.45214998,-0.75195 -1.24511,-0.76172 -2.10938002,-2.02148999 -2.10938002,-3.63769999 0,-1.44043001 0.57618002,-2.40234001 1.58692002,-3.26660001 1.24999998,-1.06934 4.17967998,-2.03613 8.62791998,-1.13769 z m 0,0" />
</g>
</svg>